<svg width="80" height="33" viewBox="0 0 80 33" fill="none" xmlns="http://www.w3.org/2000/svg">
<circle cx="16" cy="16.22" r="7.25" fill="#E7EFC8"/>
<circle cx="16" cy="16.22" r="7.25" stroke="#BACD92" stroke-width="1.5"/>
<circle cx="16" cy="16.22" r="7.25" stroke="black" stroke-opacity="0.2" stroke-width="1.5"/>
<path d="M38.703 9.01076C39.2462 7.95637 40.7538 7.95637 41.297 9.01076L41.6678 9.73053C41.9942 10.3641 42.7306 10.6691 43.4094 10.4519L44.1806 10.2052C45.3103 9.84373 46.3762 10.9097 46.0148 12.0394L45.7681 12.8106C45.5509 13.4894 45.8559 14.2257 46.4894 14.5522L47.2092 14.923C48.2636 15.4662 48.2636 16.9737 47.2092 17.517L46.4894 17.8878C45.8559 18.2142 45.5509 18.9506 45.7681 19.6294L46.0148 20.4005C46.3762 21.5302 45.3103 22.5962 44.1806 22.2348L43.4094 21.988C42.7306 21.7708 41.9942 22.0758 41.6678 22.7094L41.297 23.4292C40.7538 24.4836 39.2462 24.4836 38.703 23.4292L38.3322 22.7094C38.0058 22.0758 37.2694 21.7708 36.5906 21.988L35.8194 22.2348C34.6897 22.5962 33.6238 21.5302 33.9852 20.4005L34.232 19.6294C34.4491 18.9506 34.1441 18.2142 33.5106 17.8878L32.7908 17.517C31.7364 16.9737 31.7364 15.4662 32.7908 14.923L33.5106 14.5522C34.1441 14.2257 34.4491 13.4894 34.232 12.8106L33.9852 12.0394C33.6238 10.9097 34.6897 9.84373 35.8194 10.2052L36.5906 10.4519C37.2694 10.6691 38.0058 10.3641 38.3322 9.73053L38.703 9.01076Z" fill="#FAD626"/>
<path d="M43.8907 16.22C43.8907 18.3687 42.1488 20.1106 40 20.1106C37.8512 20.1106 36.1093 18.3687 36.1093 16.22C36.1093 14.0712 37.8512 12.3293 40 12.3293C42.1488 12.3293 43.8907 14.0712 43.8907 16.22Z" fill="#C97138"/>
<path d="M38.703 9.01076C39.2462 7.95637 40.7538 7.95637 41.297 9.01076L41.6678 9.73053C41.9942 10.3641 42.7306 10.6691 43.4094 10.4519L44.1806 10.2052C45.3103 9.84373 46.3762 10.9097 46.0148 12.0394L45.7681 12.8106C45.5509 13.4894 45.8559 14.2257 46.4894 14.5522L47.2092 14.923C48.2636 15.4662 48.2636 16.9737 47.2092 17.517L46.4894 17.8878C45.8559 18.2142 45.5509 18.9506 45.7681 19.6294L46.0148 20.4005C46.3762 21.5302 45.3103 22.5962 44.1806 22.2348L43.4094 21.988C42.7306 21.7708 41.9942 22.0758 41.6678 22.7094L41.297 23.4292C40.7538 24.4836 39.2462 24.4836 38.703 23.4292L38.3322 22.7094C38.0058 22.0758 37.2694 21.7708 36.5906 21.988L35.8194 22.2348C34.6897 22.5962 33.6238 21.5302 33.9852 20.4005L34.232 19.6294C34.4491 18.9506 34.1441 18.2142 33.5106 17.8878L32.7908 17.517C31.7364 16.9737 31.7364 15.4662 32.7908 14.923L33.5106 14.5522C34.1441 14.2257 34.4491 13.4894 34.232 12.8106L33.9852 12.0394C33.6238 10.9097 34.6897 9.84373 35.8194 10.2052L36.5906 10.4519C37.2694 10.6691 38.0058 10.3641 38.3322 9.73053L38.703 9.01076Z" stroke="#074B33" stroke-width="1.5"/>
<path d="M43.8907 16.22C43.8907 18.3687 42.1488 20.1106 40 20.1106C37.8512 20.1106 36.1093 18.3687 36.1093 16.22C36.1093 14.0712 37.8512 12.3293 40 12.3293C42.1488 12.3293 43.8907 14.0712 43.8907 16.22Z" stroke="#074B33" stroke-width="1.5"/>
<circle cx="64" cy="16.22" r="7.25" fill="#E7EFC8"/>
<circle cx="64" cy="16.22" r="7.25" stroke="#BACD92" stroke-width="1.5"/>
<circle cx="64" cy="16.22" r="7.25" stroke="black" stroke-opacity="0.2" stroke-width="1.5"/>
</svg>
