<svg width="26" height="26" viewBox="0 0 26 26" fill="none" xmlns="http://www.w3.org/2000/svg">
<path d="M11.0545 2.18619C11.8693 0.604604 14.1307 0.604604 14.9455 2.18619L15.5017 3.26583C15.9913 4.21618 17.0959 4.67371 18.1141 4.34793L19.2709 3.97782C20.9654 3.43564 22.5644 5.03462 22.0222 6.72914L21.6521 7.88588C21.3263 8.9041 21.7838 10.0087 22.7342 10.4983L23.8138 11.0545C25.3954 11.8693 25.3954 14.1307 23.8138 14.9455L22.7342 15.5017C21.7838 15.9913 21.3263 17.0959 21.6521 18.1141L22.0222 19.2709C22.5644 20.9654 20.9654 22.5644 19.2709 22.0222L18.1141 21.6521C17.0959 21.3263 15.9913 21.7838 15.5017 22.7342L14.9455 23.8138C14.1307 25.3954 11.8694 25.3954 11.0545 23.8138L10.4983 22.7342C10.0087 21.7838 8.9041 21.3263 7.88588 21.6521L6.72914 22.0222C5.03462 22.5644 3.43564 20.9654 3.97782 19.2709L4.34793 18.1141C4.67371 17.0959 4.21618 15.9913 3.26583 15.5017L2.18619 14.9455C0.604604 14.1307 0.604604 11.8694 2.18619 11.0545L3.26583 10.4983C4.21618 10.0087 4.67371 8.9041 4.34793 7.88588L3.97782 6.72914C3.43564 5.03462 5.03462 3.43564 6.72914 3.97782L7.88588 4.34793C8.9041 4.67371 10.0087 4.21618 10.4983 3.26583L11.0545 2.18619Z" fill="#FAD626"/>
<path d="M18.836 13C18.836 16.2231 16.2231 18.836 13 18.836C9.77687 18.836 7.16401 16.2231 7.16401 13C7.16401 9.77687 9.77687 7.16401 13 7.16401C16.2231 7.16401 18.836 9.77687 18.836 13Z" fill="#C97138"/>
<path fill-rule="evenodd" clip-rule="evenodd" d="M10.3878 1.84269C11.4819 -0.280898 14.5181 -0.280898 15.6122 1.84269L16.1684 2.92234C16.4903 3.54701 17.2163 3.84774 17.8856 3.6336L19.0423 3.26349C21.3175 2.53551 23.4645 4.68246 22.7365 6.9577L22.3664 8.11444C22.1523 8.78371 22.453 9.50974 23.0777 9.83157L24.1573 10.3878C26.2809 11.4819 26.2809 14.5181 24.1573 15.6122L23.0777 16.1684C22.453 16.4903 22.1523 17.2163 22.3664 17.8856L22.7365 19.0423C23.4645 21.3175 21.3175 23.4645 19.0423 22.7365L17.8856 22.3664C17.2163 22.1523 16.4903 22.453 16.1684 23.0777L15.6122 24.1573C14.5181 26.2809 11.4819 26.2809 10.3878 24.1573L9.83157 23.0777C9.50974 22.453 8.78371 22.1523 8.11444 22.3664L6.9577 22.7365C4.68246 23.4645 2.53551 21.3175 3.26349 19.0423L3.6336 17.8856C3.84774 17.2163 3.54701 16.4903 2.92234 16.1684L1.84269 15.6122C-0.280898 14.5181 -0.280898 11.4819 1.84269 10.3878L2.92234 9.83157C3.54701 9.50974 3.84774 8.78371 3.6336 8.11444L3.26349 6.9577C2.53551 4.68246 4.68246 2.53551 6.9577 3.26349L8.11444 3.6336C8.78371 3.84774 9.50974 3.54701 9.83157 2.92234L10.3878 1.84269ZM14.2788 2.52968C13.7432 1.49011 12.2568 1.49011 11.7212 2.52968L11.165 3.60933C10.5076 4.88536 9.02448 5.49969 7.65733 5.06225L6.50059 4.69214C5.38678 4.33577 4.33577 5.38678 4.69214 6.50059L5.06225 7.65733C5.49969 9.02448 4.88536 10.5076 3.60933 11.165L2.52968 11.7212C1.49011 12.2568 1.49011 13.7432 2.52968 14.2788L3.60933 14.835C4.88536 15.4924 5.49969 16.9755 5.06225 18.3427L4.69214 19.4994C4.33577 20.6132 5.38678 21.6642 6.50059 21.3079L7.65733 20.9377C9.02448 20.5003 10.5076 21.1146 11.165 22.3907L11.7212 23.4703C12.2568 24.5099 13.7432 24.5099 14.2788 23.4703L14.835 22.3907C15.4924 21.1146 16.9755 20.5003 18.3427 20.9377L19.4994 21.3079C20.6132 21.6642 21.6642 20.6132 21.3079 19.4994L20.9377 18.3427C20.5003 16.9755 21.1146 15.4924 22.3907 14.835L23.4703 14.2788C24.5099 13.7432 24.5099 12.2568 23.4703 11.7212L22.3907 11.165C21.1146 10.5076 20.5003 9.02448 20.9377 7.65733L21.3079 6.50059C21.6642 5.38678 20.6132 4.33577 19.4994 4.69214L18.3427 5.06225C16.9755 5.49969 15.4924 4.88536 14.835 3.60933L14.2788 2.52968ZM13 7.91401C10.1911 7.91401 7.91401 10.1911 7.91401 13C7.91401 15.8089 10.1911 18.086 13 18.086C15.8089 18.086 18.086 15.8089 18.086 13C18.086 10.1911 15.8089 7.91401 13 7.91401ZM6.41401 13C6.41401 9.36266 9.36266 6.41401 13 6.41401C16.6373 6.41401 19.586 9.36266 19.586 13C19.586 16.6373 16.6373 19.586 13 19.586C9.36266 19.586 6.41401 16.6373 6.41401 13Z" fill="#074B33"/>
</svg>
