<svg width="80" height="32" viewBox="0 0 80 32" fill="none" xmlns="http://www.w3.org/2000/svg">
<path d="M14.703 8.79079C15.2462 7.7364 16.7538 7.7364 17.297 8.79079L17.6678 9.51056C17.9942 10.1441 18.7306 10.4491 19.4094 10.232L20.1806 9.98521C21.3103 9.62376 22.3762 10.6897 22.0148 11.8194L21.768 12.5906C21.5509 13.2694 21.8559 14.0058 22.4894 14.3322L23.2092 14.703C24.2636 15.2462 24.2636 16.7538 23.2092 17.297L22.4894 17.6678C21.8559 17.9942 21.5509 18.7306 21.768 19.4094L22.0148 20.1806C22.3762 21.3103 21.3103 22.3762 20.1806 22.0148L19.4094 21.768C18.7306 21.5509 17.9942 21.8559 17.6678 22.4894L17.297 23.2092C16.7538 24.2636 15.2462 24.2636 14.703 23.2092L14.3322 22.4894C14.0058 21.8559 13.2694 21.5509 12.5906 21.768L11.8194 22.0148C10.6897 22.3762 9.62376 21.3103 9.98521 20.1806L10.232 19.4094C10.4491 18.7306 10.1441 17.9942 9.51056 17.6678L8.79079 17.297C7.7364 16.7538 7.7364 15.2462 8.79079 14.703L9.51056 14.3322C10.1441 14.0058 10.4491 13.2694 10.232 12.5906L9.98521 11.8194C9.62376 10.6897 10.6897 9.62376 11.8194 9.98521L12.5906 10.232C13.2694 10.4491 14.0058 10.1441 14.3322 9.51056L14.703 8.79079Z" fill="#FAD626"/>
<path d="M19.8907 16C19.8907 18.1488 18.1488 19.8907 16 19.8907C13.8512 19.8907 12.1093 18.1488 12.1093 16C12.1093 13.8512 13.8512 12.1093 16 12.1093C18.1488 12.1093 19.8907 13.8512 19.8907 16Z" fill="#C97138"/>
<path d="M14.703 8.79079C15.2462 7.7364 16.7538 7.7364 17.297 8.79079L17.6678 9.51056C17.9942 10.1441 18.7306 10.4491 19.4094 10.232L20.1806 9.98521C21.3103 9.62376 22.3762 10.6897 22.0148 11.8194L21.768 12.5906C21.5509 13.2694 21.8559 14.0058 22.4894 14.3322L23.2092 14.703C24.2636 15.2462 24.2636 16.7538 23.2092 17.297L22.4894 17.6678C21.8559 17.9942 21.5509 18.7306 21.768 19.4094L22.0148 20.1806C22.3762 21.3103 21.3103 22.3762 20.1806 22.0148L19.4094 21.768C18.7306 21.5509 17.9942 21.8559 17.6678 22.4894L17.297 23.2092C16.7538 24.2636 15.2462 24.2636 14.703 23.2092L14.3322 22.4894C14.0058 21.8559 13.2694 21.5509 12.5906 21.768L11.8194 22.0148C10.6897 22.3762 9.62376 21.3103 9.98521 20.1806L10.232 19.4094C10.4491 18.7306 10.1441 17.9942 9.51056 17.6678L8.79079 17.297C7.7364 16.7538 7.7364 15.2462 8.79079 14.703L9.51056 14.3322C10.1441 14.0058 10.4491 13.2694 10.232 12.5906L9.98521 11.8194C9.62376 10.6897 10.6897 9.62376 11.8194 9.98521L12.5906 10.232C13.2694 10.4491 14.0058 10.1441 14.3322 9.51056L14.703 8.79079Z" stroke="#074B33" stroke-width="1.5"/>
<path d="M19.8907 16C19.8907 18.1488 18.1488 19.8907 16 19.8907C13.8512 19.8907 12.1093 18.1488 12.1093 16C12.1093 13.8512 13.8512 12.1093 16 12.1093C18.1488 12.1093 19.8907 13.8512 19.8907 16Z" stroke="#074B33" stroke-width="1.5"/>
<path d="M38.703 8.79079C39.2462 7.7364 40.7538 7.7364 41.297 8.79079L41.6678 9.51056C41.9942 10.1441 42.7306 10.4491 43.4094 10.232L44.1806 9.98521C45.3103 9.62376 46.3762 10.6897 46.0148 11.8194L45.768 12.5906C45.5509 13.2694 45.8559 14.0058 46.4894 14.3322L47.2092 14.703C48.2636 15.2462 48.2636 16.7538 47.2092 17.297L46.4894 17.6678C45.8559 17.9942 45.5509 18.7306 45.768 19.4094L46.0148 20.1806C46.3762 21.3103 45.3103 22.3762 44.1806 22.0148L43.4094 21.768C42.7306 21.5509 41.9942 21.8559 41.6678 22.4894L41.297 23.2092C40.7538 24.2636 39.2462 24.2636 38.703 23.2092L38.3322 22.4894C38.0058 21.8559 37.2694 21.5509 36.5906 21.768L35.8194 22.0148C34.6897 22.3762 33.6238 21.3103 33.9852 20.1806L34.232 19.4094C34.4491 18.7306 34.1441 17.9942 33.5106 17.6678L32.7908 17.297C31.7364 16.7538 31.7364 15.2462 32.7908 14.703L33.5106 14.3322C34.1441 14.0058 34.4491 13.2694 34.232 12.5906L33.9852 11.8194C33.6238 10.6897 34.6897 9.62376 35.8194 9.98521L36.5906 10.232C37.2694 10.4491 38.0058 10.1441 38.3322 9.51056L38.703 8.79079Z" fill="#FAD626"/>
<path d="M43.8907 16C43.8907 18.1488 42.1488 19.8907 40 19.8907C37.8512 19.8907 36.1093 18.1488 36.1093 16C36.1093 13.8512 37.8512 12.1093 40 12.1093C42.1488 12.1093 43.8907 13.8512 43.8907 16Z" fill="#C97138"/>
<path d="M38.703 8.79079C39.2462 7.7364 40.7538 7.7364 41.297 8.79079L41.6678 9.51056C41.9942 10.1441 42.7306 10.4491 43.4094 10.232L44.1806 9.98521C45.3103 9.62376 46.3762 10.6897 46.0148 11.8194L45.768 12.5906C45.5509 13.2694 45.8559 14.0058 46.4894 14.3322L47.2092 14.703C48.2636 15.2462 48.2636 16.7538 47.2092 17.297L46.4894 17.6678C45.8559 17.9942 45.5509 18.7306 45.768 19.4094L46.0148 20.1806C46.3762 21.3103 45.3103 22.3762 44.1806 22.0148L43.4094 21.768C42.7306 21.5509 41.9942 21.8559 41.6678 22.4894L41.297 23.2092C40.7538 24.2636 39.2462 24.2636 38.703 23.2092L38.3322 22.4894C38.0058 21.8559 37.2694 21.5509 36.5906 21.768L35.8194 22.0148C34.6897 22.3762 33.6238 21.3103 33.9852 20.1806L34.232 19.4094C34.4491 18.7306 34.1441 17.9942 33.5106 17.6678L32.7908 17.297C31.7364 16.7538 31.7364 15.2462 32.7908 14.703L33.5106 14.3322C34.1441 14.0058 34.4491 13.2694 34.232 12.5906L33.9852 11.8194C33.6238 10.6897 34.6897 9.62376 35.8194 9.98521L36.5906 10.232C37.2694 10.4491 38.0058 10.1441 38.3322 9.51056L38.703 8.79079Z" stroke="#074B33" stroke-width="1.5"/>
<path d="M43.8907 16C43.8907 18.1488 42.1488 19.8907 40 19.8907C37.8512 19.8907 36.1093 18.1488 36.1093 16C36.1093 13.8512 37.8512 12.1093 40 12.1093C42.1488 12.1093 43.8907 13.8512 43.8907 16Z" stroke="#074B33" stroke-width="1.5"/>
<path d="M62.703 8.79079C63.2462 7.7364 64.7538 7.7364 65.297 8.79079L65.6678 9.51056C65.9942 10.1441 66.7306 10.4491 67.4094 10.232L68.1806 9.98521C69.3103 9.62376 70.3762 10.6897 70.0148 11.8194L69.768 12.5906C69.5509 13.2694 69.8559 14.0058 70.4894 14.3322L71.2092 14.703C72.2636 15.2462 72.2636 16.7538 71.2092 17.297L70.4894 17.6678C69.8559 17.9942 69.5509 18.7306 69.768 19.4094L70.0148 20.1806C70.3762 21.3103 69.3103 22.3762 68.1806 22.0148L67.4094 21.768C66.7306 21.5509 65.9942 21.8559 65.6678 22.4894L65.297 23.2092C64.7538 24.2636 63.2462 24.2636 62.703 23.2092L62.3322 22.4894C62.0058 21.8559 61.2694 21.5509 60.5906 21.768L59.8194 22.0148C58.6897 22.3762 57.6238 21.3103 57.9852 20.1806L58.232 19.4094C58.4491 18.7306 58.1441 17.9942 57.5106 17.6678L56.7908 17.297C55.7364 16.7538 55.7364 15.2462 56.7908 14.703L57.5106 14.3322C58.1441 14.0058 58.4491 13.2694 58.232 12.5906L57.9852 11.8194C57.6238 10.6897 58.6897 9.62376 59.8194 9.98521L60.5906 10.232C61.2694 10.4491 62.0058 10.1441 62.3322 9.51056L62.703 8.79079Z" fill="#FAD626"/>
<path d="M67.8907 16C67.8907 18.1488 66.1488 19.8907 64 19.8907C61.8512 19.8907 60.1093 18.1488 60.1093 16C60.1093 13.8512 61.8512 12.1093 64 12.1093C66.1488 12.1093 67.8907 13.8512 67.8907 16Z" fill="#C97138"/>
<path d="M62.703 8.79079C63.2462 7.7364 64.7538 7.7364 65.297 8.79079L65.6678 9.51056C65.9942 10.1441 66.7306 10.4491 67.4094 10.232L68.1806 9.98521C69.3103 9.62376 70.3762 10.6897 70.0148 11.8194L69.768 12.5906C69.5509 13.2694 69.8559 14.0058 70.4894 14.3322L71.2092 14.703C72.2636 15.2462 72.2636 16.7538 71.2092 17.297L70.4894 17.6678C69.8559 17.9942 69.5509 18.7306 69.768 19.4094L70.0148 20.1806C70.3762 21.3103 69.3103 22.3762 68.1806 22.0148L67.4094 21.768C66.7306 21.5509 65.9942 21.8559 65.6678 22.4894L65.297 23.2092C64.7538 24.2636 63.2462 24.2636 62.703 23.2092L62.3322 22.4894C62.0058 21.8559 61.2694 21.5509 60.5906 21.768L59.8194 22.0148C58.6897 22.3762 57.6238 21.3103 57.9852 20.1806L58.232 19.4094C58.4491 18.7306 58.1441 17.9942 57.5106 17.6678L56.7908 17.297C55.7364 16.7538 55.7364 15.2462 56.7908 14.703L57.5106 14.3322C58.1441 14.0058 58.4491 13.2694 58.232 12.5906L57.9852 11.8194C57.6238 10.6897 58.6897 9.62376 59.8194 9.98521L60.5906 10.232C61.2694 10.4491 62.0058 10.1441 62.3322 9.51056L62.703 8.79079Z" stroke="#074B33" stroke-width="1.5"/>
<path d="M67.8907 16C67.8907 18.1488 66.1488 19.8907 64 19.8907C61.8512 19.8907 60.1093 18.1488 60.1093 16C60.1093 13.8512 61.8512 12.1093 64 12.1093C66.1488 12.1093 67.8907 13.8512 67.8907 16Z" stroke="#074B33" stroke-width="1.5"/>
</svg>
