<svg width="72" height="72" viewBox="0 0 72 72" fill="none" xmlns="http://www.w3.org/2000/svg">
<g clip-path="url(#clip0_982_5589)">
<path fill-rule="evenodd" clip-rule="evenodd" d="M11.0975 50.1813L7.33075 51.5577L7.12915 62.762L20.1671 58.0005C15.6947 56.4981 12.4295 53.8545 11.0975 50.1813Z" fill="#FDBD39"/>
<path fill-rule="evenodd" clip-rule="evenodd" d="M13.0679 38.3302L0 43.1038L7.33195 51.5577L11.0975 50.1813C9.76913 46.5189 10.5875 42.3802 13.0679 38.3302Z" fill="#F69833"/>
<path fill-rule="evenodd" clip-rule="evenodd" d="M35.0614 22.1615C18.4187 28.2407 7.68955 40.7854 11.0975 50.1813L71.3623 28.1663C67.9543 18.7703 51.7028 16.0824 35.0614 22.1615Z" fill="#FECF33"/>
<path fill-rule="evenodd" clip-rule="evenodd" d="M47.3997 56.1861C64.0412 50.1057 74.7895 37.6174 71.3635 28.1663L11.0963 50.1813C14.5235 59.6325 30.757 62.2652 47.3997 56.1861Z" fill="#EE6723"/>
<path fill-rule="evenodd" clip-rule="evenodd" d="M71.3635 28.1663L11.0963 50.1813C12.2759 53.4357 16.7771 55.0389 23.0902 55.0389C29.2462 55.0389 37.1265 53.5161 45.3417 50.5149C61.9832 44.4358 73.6915 34.5922 71.3611 28.1663" fill="#F69833"/>
<path fill-rule="evenodd" clip-rule="evenodd" d="M59.3684 23.3087C53.2124 23.3087 45.3321 24.8315 37.1169 27.8327C20.4755 33.9118 8.76714 43.7542 11.0975 50.1813L71.3623 28.1663C70.1827 24.9119 65.6827 23.3087 59.3684 23.3087Z" fill="#FDBD39"/>
<path fill-rule="evenodd" clip-rule="evenodd" d="M56.0396 63.356C54.266 63.356 51.6512 61.754 48.2637 58.5957C44.2593 54.8589 39.6705 49.3857 35.3433 43.183C31.0174 36.9826 27.4618 30.7823 25.333 25.7255C23.0146 20.2151 22.6834 16.8276 24.3502 15.6552C24.7162 15.3984 25.1566 15.2688 25.6606 15.2688C27.0166 15.2688 29.659 16.278 34.5442 21.0887L34.6522 21.1931L34.6366 21.3431C34.603 21.6887 34.573 22.0379 34.5454 22.3799L34.4914 23.0591L34.0114 22.5767C28.747 17.2728 26.4298 16.7004 25.6774 16.7004C25.4626 16.7004 25.2922 16.7436 25.1698 16.83C24.4462 17.3376 24.3994 19.8263 26.6482 25.1675C28.7398 30.1343 32.2426 36.2398 36.5121 42.361C40.7841 48.4833 45.3021 53.8761 49.2369 57.5457C53.4788 61.5032 55.3904 61.9304 56.0168 61.9304C56.2328 61.9304 56.4068 61.8848 56.5376 61.7924C57.2996 61.2572 57.3008 58.5909 54.7928 52.8405L54.6776 52.5777L54.9296 52.4397C55.1816 52.3017 55.4264 52.1661 55.6544 52.0365L55.9568 51.8649L56.096 52.1829C57.8732 56.2569 59.5352 61.4348 57.356 62.9672C56.9888 63.2252 56.546 63.356 56.0396 63.356Z" fill="#EE6723"/>
<path fill-rule="evenodd" clip-rule="evenodd" d="M47.8029 56.0145L47.7789 56.3265C47.3577 61.5332 46.2489 67.7912 43.3605 68.0456C43.3029 68.0504 43.2429 68.0528 43.1829 68.0528C41.2197 68.0528 39.3633 65.2412 37.6653 59.6973C36.0573 54.4509 34.8094 47.4093 34.153 39.865C33.4954 32.3242 33.505 25.1699 34.1806 19.7231C34.9162 13.7868 36.3177 10.6872 38.3457 10.5084C38.4057 10.5036 38.4681 10.5 38.5293 10.5C39.9525 10.5 42.0981 12.1128 44.2941 19.6199L42.8601 19.8959C42.1269 17.388 41.3277 15.348 40.5345 13.944C39.8001 12.648 39.0873 11.934 38.5257 11.934C38.5065 11.934 38.4885 11.934 38.4693 11.9364C37.5909 12.0132 36.3105 14.1456 35.5978 19.8995C34.9342 25.2491 34.9258 32.2954 35.5738 39.7402C36.2241 47.1861 37.4505 54.1245 39.0297 59.2761C39.7365 61.5824 40.5117 63.4844 41.2725 64.7744C41.9733 65.9648 42.6513 66.62 43.1817 66.62C43.1997 66.62 43.2177 66.62 43.2369 66.6176C44.0769 66.5444 45.6621 64.3256 46.3293 56.5197L47.8029 56.0145Z" fill="#EE6723"/>
</g>
<defs>
<clipPath id="clip0_982_5589">
<rect width="72" height="72" rx="14" fill="white"/>
</clipPath>
</defs>
</svg>
